<svg width="395" height="60" viewBox="0 0 395 60" fill="none" xmlns="http://www.w3.org/2000/svg">
<path d="M286.058 9.37008C286.462 9.37008 287.365 7.88979 287.365 7.44534C287.365 7.00075 286.462 5.48334 286.058 5.48334C285.685 5.48334 284.751 7.03805 284.751 7.44534C284.751 7.85267 285.685 9.37008 286.058 9.37008Z" fill="white"/>
<path d="M303.064 24.1729V17.9169C303.064 15.0332 302.138 10.823 297.867 10.823C294.776 10.823 293.182 13.7555 293.247 13.3017V11.1255C293.247 10.7462 293.054 10.5181 292.864 10.5181C292.129 10.5181 291.585 11.7633 289.092 12.5104C288.933 12.5476 288.476 12.5522 288.459 12.8408C288.459 13.6369 290.962 11.8052 290.92 14.9191V24.3242C290.92 26.0888 290.056 26.2261 289.427 26.396C289.386 26.397 289.356 26.3895 289.306 26.3979C288.666 26.3606 287.303 26.1116 287.303 24.7431V11.1255C287.303 10.7462 287.111 10.5204 286.921 10.5204C286.188 10.5204 285.715 11.854 283.677 12.5359C283.516 12.5732 283.223 12.6057 283.223 12.8338C283.223 13.6298 285.052 12.0844 284.975 14.9191V23.8704C285.045 26.1605 283.795 26.3792 283.107 26.3792C282.074 26.3653 282.329 26.4957 282.329 26.8168C282.362 27.1962 282.984 27.2241 284.008 27.2287C284.359 27.2287 285.231 27.0961 286.251 27.0961C287.558 27.0961 288.545 27.2451 289.216 27.2451C289.6 27.2451 290.633 27.0937 292.32 27.0937C294.171 27.0937 294.808 27.2451 295.348 27.2451C295.828 27.2451 296.377 27.0356 296.051 26.7145C295.538 26.2117 293.247 26.7912 293.247 24.1729V15.4499C293.213 14.8424 294.33 12.4917 297.008 12.4917C299.589 12.4917 300.737 15.3357 300.737 17.2326V24.3242C300.705 27.1078 299.743 26.228 299.366 26.7912C299.154 27.1054 299.523 27.2451 299.938 27.2451C300.355 27.2451 301.023 27.0937 302.233 27.0937C303.794 27.0937 304.48 27.238 304.893 27.238C305.212 27.238 305.791 26.9937 305.435 26.7051C304.631 26.0581 303.043 27.0449 303.064 24.1729Z" fill="white"/>
<path d="M60.1867 2.27842C60.6364 2.21324 60.8606 2.0457 60.8606 2.0457C60.8606 1.74554 60.7969 1.67797 60.3788 1.67797C59.5769 1.67797 59.0951 1.81298 58.2927 1.81298C57.4264 1.81298 56.7519 1.71288 56.0137 1.71288C55.5962 1.71288 55.6282 1.84551 55.6282 2.08062C55.6282 2.346 56.4308 2.17833 56.8804 3.17918C57.1368 3.71207 57.041 4.84793 56.784 5.51357L50.6211 22.4266L47.9888 14.9231L46.961 12.1862C46.961 12.1862 46.8009 12.2537 47.5387 9.98439L48.9836 5.64846C49.6901 3.51426 50.3939 2.39485 51.2946 2.37853C52.4286 2.35993 52.4272 1.67797 51.56 1.67797C50.6937 1.67797 50.171 1.74553 49.4007 1.74553C48.5986 1.74553 48.1811 1.67797 47.3144 1.67797C46.9936 1.67797 46.6403 1.77807 46.6725 2.0457C46.7047 2.31334 47.1859 2.21325 47.5387 2.41106C48.1173 2.71373 48.5018 3.94718 48.0847 5.24819L46.3834 10.685L44.4572 5.61593C44.0724 4.64773 43.5635 2.52045 44.4963 2.32729C45.3961 2.14342 45.2737 1.67797 44.7282 1.67797C43.6692 1.67797 43.1092 1.81298 42.082 1.81298C40.9583 1.81298 40.1236 1.67797 39.0647 1.67797C38.8399 1.67797 38.4223 1.71288 38.5513 2.1458C38.615 2.41106 39.161 2.31334 39.4822 2.51354C40.7656 3.34672 41.023 4.41501 41.4721 5.61593L44.2966 13.5873C44.8105 15.0209 44.8427 14.4879 44.4256 15.7238L41.9539 22.4942L35.8864 5.11556C35.405 3.81217 35.1486 2.91154 36.2076 2.41106C36.6572 2.17833 36.7898 2.13412 36.8499 2.0457C36.909 1.95729 36.9644 1.65473 36.3039 1.67797C35.2128 1.71753 34.5379 1.81298 33.4474 1.81298C32.2915 1.81298 31.489 1.67797 30.4296 1.67797C30.0764 1.67797 30.0125 1.84551 30.0125 2.11088C30.0125 2.51354 30.8788 2.24589 31.617 3.11161C32.0345 3.57945 32.8375 5.14809 33.0293 5.71602L40.3573 26.7719C40.4909 27.0861 40.5239 27.6981 40.9583 27.6981C41.2938 27.6959 41.359 26.9907 41.4759 26.7231L45.3243 16.1567L49.0804 26.1971C49.24 26.5973 49.4565 27.6959 49.8502 27.6981C50.1748 27.6981 50.2916 27.1792 50.4591 26.6764L57.715 5.91622C58.3247 4.24747 59.0309 2.47862 60.1867 2.27842Z" fill="white"/>
<path d="M141.045 26.3469C137.316 26.3469 135.85 21.7223 135.85 17.952C135.85 14.6843 137.125 11.6749 140.248 11.6749C144.041 11.6749 145.411 15.7223 145.411 19.6835C145.411 24.4523 143.723 26.3469 141.045 26.3469ZM120.141 20.4283C117.579 20.4283 116.724 17.9566 116.724 15.6199C116.724 13.2087 117.452 11.2141 120.013 11.2141C122.609 11.2141 123.646 13.8767 123.646 16.2134C123.646 18.5896 122.561 20.4283 120.141 20.4283ZM117.658 26.0512C117.917 26.035 117.988 26.1444 120.905 26.2631C123.922 26.3329 125.01 27.2173 125.194 27.9946C125.522 29.3724 124.54 32.3282 120.209 32.042C117.485 31.865 116.687 30.5688 116.476 30.2685C115.46 28.8302 116.298 26.1327 117.658 26.0512ZM140.725 10.5322C136.71 10.5322 133.619 14.5702 133.619 19.2995C133.619 21.7017 134.267 23.6191 135.367 24.9932C134.985 25.2524 134.236 25.8487 132.721 25.8487C131.404 25.8487 130.644 25.0668 130.578 23.3794V13.0993C130.578 13.0993 134.518 13.0877 134.737 13.0877C135.01 13.0877 135.538 11.3095 135.557 11.2188C135.603 10.9954 135.679 10.8162 135.703 10.6555C135.755 10.3158 135.492 10.2878 135.254 10.6462C135.061 10.8301 134.859 11.3212 134.037 11.3212H130.585C130.585 8.35605 130.619 7.01084 130.157 7.01084C129.716 7.01084 129.783 7.1319 129.382 8.45153C128.846 10.225 127.184 11.1913 126.145 11.7541C125.679 11.8598 125.15 11.8979 124.56 11.7681C123.657 11.5703 122.589 10.4741 119.859 10.4741C116.931 10.4741 114.37 12.8666 114.37 16.076C114.37 17.8053 115.135 19.4694 116.484 20.3514C116.234 20.5004 114.602 21.8759 114.799 23.4935C114.799 23.4935 114.766 25.1691 116.082 25.7347C115.673 25.8976 115.263 26.1704 114.898 26.5144C114.038 26.1988 112.779 26.4376 112.779 24.1707V17.9124C112.779 15.0287 111.854 10.8208 107.584 10.8208C104.492 10.8208 102.898 13.7533 102.961 13.2971V11.1234C102.961 10.7439 102.771 10.5158 102.579 10.5158C101.846 10.5158 101.687 11.7331 99.003 12.4244C98.844 12.4639 98.4849 12.5478 98.4681 12.8386C98.4681 13.6346 100.621 11.9682 100.635 14.917V24.322C100.635 26.3444 99.0303 26.3491 98.7458 26.3771C98.6325 26.3771 98.5062 26.3822 98.3654 26.384C97.6876 26.3189 96.5084 26.0196 96.5084 24.7433V11.1257C96.5084 10.7464 96.3175 10.5206 96.1258 10.5206C95.3932 10.5206 94.9215 11.8542 92.8819 12.536C92.7221 12.5733 92.4285 12.6059 92.4285 12.834C92.4285 13.6299 94.2589 12.0845 94.182 14.9193V23.8705C94.2482 26.0582 93.1154 26.3524 92.4125 26.3747C91.5635 26.2719 90.9153 25.9265 90.9153 24.6292V18.2964C90.9153 15.0333 89.6722 10.8231 85.5931 10.8231C83.7764 10.8231 82.2145 11.8239 81.0034 13.1877V2.28629C81.0034 1.90687 80.8117 1.69047 80.6215 1.6788C80.1308 1.64853 79.3077 3.14735 76.9813 3.67798C76.8215 3.71528 76.2228 3.76414 76.2228 3.99221C76.2228 4.78822 78.6367 3.61519 78.677 6.07756V24.6664C78.677 26.5261 77.0855 26.2724 76.7964 26.8658C76.7469 27.1241 76.8922 27.2452 77.1151 27.2452C77.6249 27.2452 79.0269 27.0963 80.0152 27.0963C81.0034 27.0963 82.5972 27.2452 83.2667 27.2452C83.6493 27.2452 83.8083 27.1708 83.8083 26.7145C83.4751 26.0675 81.0034 27.0567 81.0034 23.7937V15.7922C81.0034 13.858 83.2986 12.3778 84.7326 12.3778C85.8479 12.3778 88.5897 13.2505 88.5897 17.9542V24.8945C88.5897 26.2607 87.1382 26.4027 87.0278 26.8309C87.0278 27.1334 87.2188 27.2452 87.5376 27.2452C87.8883 27.2452 88.9069 27.0963 90.1508 27.0963C90.8453 27.0963 91.473 27.1321 92.0017 27.1637C92.2893 27.2186 92.7008 27.2266 93.2128 27.2289C93.5635 27.2289 94.4369 27.0963 95.4563 27.0963C96.4628 27.0963 97.276 27.1832 97.9037 27.2238C98.0261 27.2313 98.1509 27.2364 98.2787 27.2392C98.3236 27.2405 98.3784 27.2452 98.421 27.2452C98.4233 27.2452 98.4255 27.2433 98.4286 27.2433C98.8173 27.2494 99.1787 27.2428 99.3286 27.2428C99.7105 27.2428 100.348 27.0916 102.038 27.0916C103.886 27.0916 104.523 27.2428 105.065 27.2428C105.543 27.2428 106.092 27.0311 105.766 26.7122C105.253 26.2095 102.961 26.789 102.961 24.1707V15.4476C102.93 14.8402 104.046 12.4896 106.722 12.4896C109.304 12.4896 110.452 15.3336 110.452 17.2305V24.322C110.452 26.789 109.459 26.2258 109.081 26.789C108.869 27.1031 109.241 27.2428 109.655 27.2428C110.069 27.2428 110.738 27.0916 111.95 27.0916C113.098 27.0916 113.829 27.173 114.303 27.2163C113.951 27.7297 113.706 28.32 113.672 28.9418C113.501 32.0256 117.282 33.1311 120.456 33.0893C126.755 33.0055 128.54 28.63 127.236 26.3142C125.89 23.9216 123.009 24.0195 120.245 24.0288C115.072 24.0474 116.052 20.8425 118.157 20.9613C118.643 20.9892 118.411 21.1265 120.089 21.1265C123.083 21.1265 125.952 19.0923 125.868 15.7409C125.86 15.457 125.931 14.4795 125.21 13.1064C126.611 13.1123 126.054 13.1016 128.178 13.104L128.17 22.4904C128.17 26.7308 130.188 27.45 131.7 27.45C133.85 27.45 135.41 26.0359 135.688 25.3745C136.953 26.7271 138.714 27.45 140.758 27.45C144.678 27.45 147.643 23.8356 147.643 19.1063C147.643 11.9543 143.148 10.5322 140.725 10.5322Z" fill="white"/>
<path d="M161.327 24.1729V17.9169C161.327 15.0332 160.403 10.823 156.134 10.823C153.041 10.823 151.448 13.7555 151.511 13.3017V11.1255C151.511 10.7462 151.32 10.5181 151.129 10.5181C150.396 10.5181 149.851 11.7633 147.357 12.5104C147.198 12.5476 146.74 12.5522 146.725 12.8408C146.725 13.6369 149.228 11.8052 149.185 14.9191V24.3242C149.185 26.7912 147.526 26.1954 147.15 26.8401C146.958 27.1682 147.463 27.2451 147.878 27.2451C148.261 27.2451 148.898 27.0937 150.586 27.0937C152.436 27.0937 153.073 27.2451 153.614 27.2451C154.093 27.2451 154.643 27.0356 154.316 26.7145C153.803 26.2117 151.511 26.7912 151.511 24.1729V15.4499C151.479 14.8424 152.595 12.4917 155.273 12.4917C157.854 12.4917 159 15.3357 159 17.2326V24.3242C158.97 27.1078 158.008 26.228 157.632 26.7912C157.419 27.1054 157.79 27.2451 158.203 27.2451C158.619 27.2451 159.289 27.0937 160.498 27.0937C162.061 27.0937 162.745 27.238 163.158 27.238C163.477 27.238 164.056 26.9937 163.7 26.7051C162.896 26.0581 161.308 27.0449 161.327 24.1729Z" fill="white"/>
<path d="M95.2637 9.37008C95.6685 9.37008 96.5707 7.88979 96.5707 7.44534C96.5707 7.00075 95.6685 5.48334 95.2637 5.48334C94.891 5.48334 93.9575 7.03805 93.9575 7.44534C93.9575 7.85267 94.891 9.37008 95.2637 9.37008Z" fill="white"/>
<path d="M63.5919 23.2437C63.5919 25.2707 61.5346 26.3414 60.3877 26.3414C58.6989 26.3414 57.5147 25.2429 57.5147 23.0644C57.5147 19.6991 61.5523 19.0869 63.5919 18.5517V23.2437ZM73.9679 17.9232C73.3418 17.623 72.4049 17.0877 71.9422 16.834C69.943 15.7401 69.154 15.0233 69.0976 13.9993C69.005 12.2258 70.5104 11.3064 71.8151 11.4345C74.9375 11.3809 75.356 14.879 75.6754 14.879C76.1528 14.879 76.0254 14.4205 76.0254 13.3894C76.0254 13.1218 76.0575 11.8231 75.8647 11.5182C75.4826 10.9434 73.2739 10.6083 72.7335 10.6083C72.597 10.6083 72.086 10.5919 71.998 10.5896C71.8469 10.5849 71.6494 10.6083 71.6494 10.6083C69.4263 10.5734 67.3465 11.9814 67.4127 14.9581C67.4736 17.6719 70.663 19.2195 72.3849 20.2505C73.6585 20.9767 75.1587 21.668 75.1395 23.4065C75.1148 25.3895 73.5783 26.7045 71.9245 26.5951C68.0508 26.5299 68.5814 21.6703 67.8828 21.6703C67.4056 21.6703 67.5025 22.8921 67.5006 23.5416C67.4982 24.1704 67.4872 24.7481 67.4866 25.2331C67.4081 25.6795 67.2306 26.0887 66.8169 26.1133C65.291 26.204 65.6587 23.7789 65.6587 22.4802V14.5648C65.5847 12.142 63.761 10.5616 60.9895 10.5616C57.1842 10.5616 54.4635 15.2491 55.7528 16.7059C56.061 17.0551 57.3015 15.7145 57.376 15.6424C57.4514 15.5726 57.4677 15.4841 57.4677 15.4841C57.4598 13.8875 58.6607 11.8534 60.3826 11.6835C62.3491 11.4879 63.3318 12.9589 63.3318 14.9488V17.5252C55.8744 19.0147 54.7944 21.4958 54.7944 23.5206C54.7944 26.2343 56.703 27.4493 58.7742 27.4493C60.5594 27.4493 62.312 26.609 63.6506 25.2336C64.0649 26.495 64.8949 27.2561 66.1373 27.2188C66.5683 27.2071 66.633 27.3258 67.9419 26.7603C68.3953 26.6425 68.3706 26.6486 68.89 26.7449C69.5771 26.9856 70.5146 27.4469 72.1638 27.4469C74.6625 27.4842 76.9021 25.1707 76.9021 22.308C76.9021 20.5438 76.3886 19.4244 73.9679 17.9232Z" fill="white"/>
<path d="M334.302 23.481C333.925 23.481 332.981 25.0683 332.981 25.4849C332.981 25.8992 333.925 27.4493 334.302 27.4493C334.712 27.4493 335.626 25.9388 335.626 25.4849C335.626 25.0311 334.712 23.481 334.302 23.481Z" fill="white"/>
<path d="M375.785 24.8541V11.5252C375.785 10.7712 375.363 10.5734 375.245 10.5734C374.762 10.5734 374.493 10.692 374.161 10.7712C373.832 10.8898 373.445 11.0621 372.574 11.0621C372.423 11.0621 371.592 10.9224 371.644 11.367C371.695 11.8139 373.578 11.5578 373.592 12.8774V22.5197C373.445 24.2026 372.03 26.0597 370.32 26.0597C369.929 26.0597 367.375 25.7828 367.405 21.5725V11.5252C367.405 10.7712 366.984 10.5734 366.866 10.5734C366.384 10.5734 366.113 10.692 365.783 10.7712C365.454 10.8898 365.031 11.0434 364.162 11.0108C363.695 10.9922 363.18 10.9224 363.263 11.367C363.337 11.7626 365.214 11.367 365.214 12.8774V22.1288C365.214 25.5059 367.194 27.4493 369.597 27.4493C371.19 27.4493 372.661 27.1024 373.592 25.2359H373.653V26.8557C373.653 27.014 373.683 27.4493 373.922 27.4493C374.371 27.4493 374.613 27.0745 374.945 26.9558C375.305 26.8743 375.395 26.5463 376.517 26.4462C376.994 26.4042 377.531 26.1505 377.531 25.8316C377.357 25.1567 375.785 25.8852 375.785 24.8541Z" fill="white"/>
<path d="M357.286 26.3461C353.558 26.3461 352.092 21.7215 352.092 17.9512C352.092 14.6835 353.367 11.6742 356.49 11.6742C360.282 11.6742 361.652 15.7216 361.652 19.6828C361.652 24.4515 359.962 26.3461 357.286 26.3461ZM356.968 10.5315C352.954 10.5315 349.86 14.5695 349.86 19.2987C349.86 21.4297 350.371 23.1771 351.254 24.506C350.273 25.2065 348.508 25.8619 345.149 25.8619C342.524 25.8619 342.773 24.9567 342.773 22.7316V4.94333C342.773 1.66171 345.226 2.61835 345.277 2.02015C345.311 1.60595 344.935 1.69901 344.527 1.69901C344.058 1.69901 343.215 1.88288 341.434 1.88288C339.9 1.88288 338.554 1.73857 337.897 1.73857C337.49 1.73857 337.121 1.85261 337.26 2.16446C337.563 2.86501 339.887 2.22964 339.887 4.18926V22.7688C339.887 24.5423 340.154 25.6758 339.34 26.1296C338.342 26.7324 337.172 26.7627 337.271 27.1537C337.334 27.398 337.822 27.4098 338.104 27.4098C339.354 27.4098 341.086 27.2562 342.335 27.2188C344.713 27.1443 347.088 27.3702 349.466 27.3702C350.844 27.3702 351.189 27.0908 352.19 25.734C352.206 25.7117 352.218 25.6944 352.235 25.6729C353.472 26.8301 355.115 27.4493 357 27.4493C360.92 27.4493 363.884 23.8349 363.884 19.1055C363.884 11.9536 359.39 10.5315 356.968 10.5315Z" fill="white"/>
<path d="M317.861 13.436C316.946 12.9774 315.583 12.1559 314.912 11.7696C311.996 10.0938 310.846 8.99769 310.765 7.43126C310.628 4.71519 313.278 3.10698 315.178 3.30479C317.587 3.30479 319.577 4.76643 320.398 7.89679C320.481 8.22499 320.784 8.99061 321.087 8.99061C321.36 8.99061 321.413 8.7347 321.385 8.4437L320.975 3.4933C320.948 3.09303 320.813 2.98364 320.647 2.98364C320.375 2.98364 320.207 3.38403 319.961 3.38403C319.577 3.38403 318.604 2.00854 315.29 2.03869C315.068 2.03177 314.766 2.06668 314.766 2.06668C311.529 2.0108 308.492 4.16133 308.589 8.71834C308.675 12.8681 313.327 15.2397 315.835 16.8177C317.691 17.9278 319.635 19.7037 319.575 21.675C319.479 24.7098 317.575 26.6974 315.166 26.5275C309.52 26.4274 310.295 18.9892 309.275 18.9892C308.58 18.9892 308.721 20.8604 308.717 21.8519C308.712 24.2095 308.619 26.1412 308.89 26.4833C308.976 26.5927 309.248 26.5415 309.796 26.5415C310.909 26.5415 312.267 27.8332 315.515 27.8332C319.153 27.8915 322.137 24.5259 322.137 20.1435C322.137 17.446 321.385 15.7308 317.861 13.436Z" fill="white"/>
<path d="M384.718 26.398C384.08 26.3607 382.715 26.1116 382.715 24.7431V11.1256C382.715 10.7462 382.523 10.5204 382.332 10.5204C381.599 10.5204 381.128 11.8541 379.087 12.5359C378.928 12.5732 378.635 12.6058 378.635 12.8338C378.635 13.6298 380.464 12.0844 380.388 14.9192V23.8704C380.459 26.1605 379.208 26.3792 378.517 26.3792C377.483 26.3653 377.741 26.4957 377.741 26.8168C377.773 27.1962 378.396 27.2241 379.42 27.2288C379.769 27.2288 380.642 27.0962 381.663 27.0962C382.969 27.0962 383.958 27.2451 384.627 27.2451C385.04 27.2451 385.557 26.2559 384.718 26.398Z" fill="white"/>
<path d="M392.067 17.9193C391.44 17.6191 390.502 17.0814 390.04 16.8302C388.041 15.7338 387.252 15.0171 387.196 13.993C387.103 12.2195 388.608 11.3026 389.914 11.4305C393.035 11.3747 393.454 14.8728 393.772 14.8728C394.25 14.8728 394.124 14.4143 394.124 13.3832C394.124 13.1156 394.155 11.8169 393.965 11.5121C393.58 10.9394 391.371 10.602 390.832 10.602C390.696 10.602 390.184 10.5881 390.095 10.5857C389.944 10.5811 389.746 10.602 389.746 10.602C387.523 10.5671 385.446 11.9751 385.511 14.9542C385.572 17.6656 388.762 19.2134 390.483 20.2467C391.758 20.9706 393.256 21.6617 393.237 23.4003C393.212 25.3833 391.676 26.6982 390.024 26.5889C386.149 26.5237 386.679 21.6641 385.98 21.6641C385.503 21.6641 385.602 22.886 385.599 23.5353C385.592 25.0714 385.529 26.3352 385.716 26.561C385.773 26.6308 385.96 26.5959 386.336 26.5959C387.1 26.5959 388.034 27.4407 390.26 27.4407C392.761 27.4779 395 25.1645 395 22.3018C395 20.5399 394.487 19.4181 392.067 17.9193Z" fill="white"/>
<path d="M332.104 24.9008C331.784 25.0544 331.052 25.848 329.309 25.848C327.995 25.848 327.233 25.066 327.169 23.3786V12.5259C327.169 12.5259 331.106 12.5167 331.325 12.5167C331.597 12.5167 332.126 10.7385 332.144 10.6479C332.19 10.4244 332.265 10.2428 332.291 10.0846C332.342 9.74477 332.08 9.71456 331.841 10.0729C331.649 10.2568 331.445 10.7478 330.627 10.7478H327.174C327.174 7.78513 327.208 7.01007 326.747 7.01007C326.305 7.01007 326.373 7.12876 325.972 8.45071C325.304 10.6571 322.877 11.6254 322.102 12.1047C321.912 12.1978 321.922 12.2328 321.915 12.3445C321.899 12.6261 322.837 12.5097 324.767 12.5609L324.759 22.4896C324.759 26.73 326.777 27.4493 328.291 27.4493C330.593 27.4493 332.238 25.8108 332.333 25.2336C332.333 24.903 332.291 24.8728 332.104 24.9008Z" fill="white"/>
<path d="M225.784 11.4811C227.539 11.4811 229.327 13.3965 229.327 15.5399C229.327 16.1148 229.135 16.3057 228.688 16.3057H222.4C222.4 14.1994 223.804 11.4811 225.784 11.4811ZM232.04 23.5439C231.339 23.5439 230.285 25.5362 227.539 25.5362C225.591 25.5362 222.4 23.6579 222.4 17.3391H230.893C231.625 17.3391 231.977 17.3786 231.977 16.6898C231.977 15.1583 230.253 10.6013 226.327 10.6013C222.334 10.6013 220.068 14.6975 220.068 19.599C220.068 22.1265 221.73 27.4493 226.517 27.4493C229.391 27.4493 232.168 24.6937 232.168 23.8115C232.168 23.6975 232.168 23.5439 232.04 23.5439Z" fill="white"/>
<path d="M186.782 2.45122C186.907 2.2465 186.476 2.1557 186.334 2.1557C185.828 2.1557 184.655 2.28368 184.121 2.28368C183.021 2.28368 182.107 2.17894 181.007 2.17894C180.922 2.17894 180.444 2.23947 180.442 2.40237C180.435 3.18204 183.062 2.27212 183.062 5.59556V18.6104C183.062 22.4575 181.851 26.4979 176.553 26.4979C172.751 26.4979 170.691 24.1193 170.691 18.9037V4.74843C170.691 2.40237 172.528 2.90749 172.568 2.38378C172.604 1.88103 170.94 2.17894 170.799 2.17894C169.926 2.17894 169.311 2.26973 168.409 2.26973C167.649 2.26973 166.727 2.1557 165.993 2.1557C165.852 2.1557 165.333 2.12781 165.248 2.33718C164.96 3.0331 167.595 2.66309 167.595 4.58554V18.0238C167.595 23.044 169.004 27.9571 176.413 27.8338C185.2 27.6872 185.036 19.7857 185.036 18.1892V5.62821C185.036 2.63044 186.503 2.91441 186.782 2.45122Z" fill="white"/>
<path d="M221.481 11.3739C221.694 11.1249 221.76 10.7199 220.773 10.806C220.231 10.806 219.821 10.9014 219.277 10.9014C218.576 10.9014 218.444 10.8781 217.773 10.8525C216.937 10.8247 216.71 10.9154 216.759 11.1668C216.903 11.9116 218.662 11.1831 218.425 13.38C218.222 15.2258 217.627 16.8131 217.019 18.3886L214.881 24.0698L211.753 14.602C211.368 13.4196 211.21 12.7867 211.21 12.6703C211.21 11.4856 212.641 11.758 212.958 11.2598C213.16 10.9433 212.742 10.7758 212.295 10.7758C211.913 10.7758 211.473 10.9084 210.293 10.9363C209.314 10.9619 208.62 10.955 208.191 10.8781C207.09 10.678 207.179 11.2854 207.563 11.4786C207.94 11.6695 208.124 11.4925 208.687 13.1427L213.507 26.7533C213.604 27.0278 213.731 27.6981 214.147 27.6981C214.627 27.6981 214.627 27.2258 215.231 25.6082C215.231 25.6082 219.84 12.7191 220.156 12.2514C220.781 11.3343 221.252 11.6368 221.481 11.3739Z" fill="white"/>
<path d="M239.273 10.7555C237.968 10.7555 237.056 12.3312 236.401 13.4181H236.341V11.0557C236.341 10.681 236.154 10.4552 235.969 10.4552C235.468 10.4552 235.085 11.4607 232.436 12.0867C232.28 12.1239 231.838 12.2101 231.838 12.4359C231.838 13.2249 234.077 12.1984 234.074 14.8051V24.7338C234.074 26.2698 232.489 26.1209 232.489 26.9098C232.489 27.1333 232.582 27.2451 232.831 27.2451C233.048 27.2451 233.608 27.0961 235.686 27.0961C237.427 27.0961 238.172 27.2451 238.608 27.2451C238.948 27.2451 239.104 27.1706 239.104 26.8331C239.104 25.6322 236.341 27.4336 236.341 23.9471V15.48C236.341 14.9936 237.085 13.2691 238.359 13.2691C239.476 13.2691 239.615 14.1301 240.205 14.1301C240.576 14.1301 241.321 13.0061 241.321 12.4428C241.321 11.733 239.925 10.7555 239.273 10.7555Z" fill="white"/>
<path d="M279.333 10.8784C279 10.8784 278.148 10.9297 277.382 10.9297C276.449 10.9297 275.991 10.8178 275.593 10.8178C274.992 10.8178 274.415 10.8225 274.518 11.2136C274.634 11.6558 276.649 11.4974 276.649 13.6922C276.649 13.9738 276.649 14.3416 276.249 15.8009L273.685 23.963L270.121 13.9343C270.121 13.9343 269.954 13.6108 269.954 12.9591C269.954 11.3369 271.851 11.5138 271.924 11.2251C271.985 10.9878 271.666 10.7411 271.167 10.7411C270.633 10.7411 269.849 10.7458 268.669 10.7458C268.482 10.7458 268.311 10.7472 268.143 10.749C268.143 10.7467 268.145 10.7429 268.145 10.7411H266.706C266.686 10.7411 266.674 10.7504 266.651 10.7504H263.199C263.199 7.78529 263.232 7.01025 262.772 7.01025C262.328 7.01025 262.397 7.13132 261.996 8.45095C261.331 10.6573 258.902 11.6255 258.126 12.105C257.937 12.198 257.947 12.2329 257.94 12.347C257.923 12.6262 258.864 12.5122 260.792 12.5611L260.784 22.4898C260.784 26.7302 262.801 27.4495 264.315 27.4495C266.618 27.4495 268.264 25.8132 268.359 25.2338C268.359 24.9056 268.318 24.8731 268.132 24.9009C267.81 25.057 267.08 25.8481 265.334 25.8481C264.019 25.8481 263.258 25.0662 263.192 23.3788V12.5285C263.192 12.5285 266.267 12.5197 267.133 12.5174C267.181 12.5914 267.226 12.6672 267.256 12.7566L270.938 23.1554C271.238 24.0073 271.415 24.2842 271.776 25.79C272.013 26.7722 271.924 27.6473 271.924 27.6473C271.568 29.2113 270.608 30.1073 269.143 32.991C269.001 33.2702 271.257 32.963 271.368 32.9281C271.551 32.8722 271.529 32.821 271.749 32.4114L273.373 27.57L277.916 13.6108C278.581 11.174 279.635 11.6185 279.797 11.2857C279.892 11.0808 279.734 10.8784 279.333 10.8784Z" fill="white"/>
<path d="M255.302 9.37008C255.707 9.37008 256.608 7.88979 256.608 7.44534C256.608 7.00075 255.707 5.48334 255.302 5.48334C254.928 5.48334 253.995 7.03805 253.995 7.44534C253.995 7.85267 254.928 9.37008 255.302 9.37008Z" fill="white"/>
<path d="M258.549 26.398C257.911 26.3607 256.547 26.1116 256.547 24.7431V11.1256C256.547 10.7462 256.354 10.5204 256.163 10.5204C255.43 10.5204 254.959 11.8541 252.918 12.5359C252.761 12.5732 252.468 12.6058 252.468 12.8338C252.468 13.6298 254.297 12.0844 254.22 14.9192V23.8704C254.29 26.1605 253.04 26.3792 252.348 26.3792C251.315 26.3653 251.574 26.4957 251.574 26.8168C251.604 27.1962 252.227 27.2241 253.252 27.2288C253.601 27.2288 254.473 27.0962 255.495 27.0962C256.8 27.0962 257.789 27.2451 258.458 27.2451C258.873 27.2451 259.388 26.2559 258.549 26.398Z" fill="white"/>
<path d="M204.91 9.37008C205.314 9.37008 206.218 7.88979 206.218 7.44534C206.218 7.00075 205.314 5.48334 204.91 5.48334C204.536 5.48334 203.604 7.03805 203.604 7.44534C203.604 7.85267 204.536 9.37008 204.91 9.37008Z" fill="white"/>
<path d="M208.159 26.3979C207.519 26.3606 206.154 26.1116 206.154 24.7431V11.1255C206.154 10.7462 205.964 10.5204 205.772 10.5204C205.039 10.5204 204.567 11.854 202.529 12.5359C202.367 12.5732 202.074 12.6057 202.074 12.8338C202.074 13.6298 203.903 12.0844 203.827 14.9191V23.8704C203.896 26.1605 202.647 26.3792 201.958 26.3792C201.872 26.3783 201.807 26.3797 201.738 26.3806C201.07 26.2615 200.441 25.9873 200.455 24.1729V17.9169C200.455 15.0332 199.528 10.823 195.26 10.823C192.167 10.823 190.574 13.7555 190.639 13.3017V11.1255C190.639 10.7462 190.446 10.5181 190.256 10.5181C189.522 10.5181 188.976 11.7633 186.483 12.5104C186.324 12.5476 185.866 12.5522 185.85 12.8408C185.85 13.6369 188.354 11.8052 188.312 14.9191V24.3242C188.312 26.7912 186.652 26.1954 186.276 26.8401C186.083 27.1682 186.589 27.2451 187.004 27.2451C187.386 27.2451 188.024 27.0937 189.713 27.0937C191.562 27.0937 192.2 27.2451 192.741 27.2451C193.219 27.2451 193.769 27.0356 193.442 26.7145C192.93 26.2117 190.639 26.7912 190.639 24.1729V15.4499C190.605 14.8424 191.72 12.4917 194.399 12.4917C196.98 12.4917 198.127 15.3357 198.127 17.2326V24.3242C198.094 27.1078 197.133 26.228 196.756 26.7912C196.544 27.1054 196.915 27.2451 197.328 27.2451C197.745 27.2451 198.414 27.0937 199.623 27.0937C201.186 27.0937 201.87 27.238 202.284 27.238C202.332 27.238 202.386 27.2311 202.44 27.2209C202.576 27.2241 202.704 27.2283 202.859 27.2287C203.21 27.2287 204.084 27.0961 205.102 27.0961C206.411 27.0961 207.397 27.2451 208.068 27.2451C208.482 27.2451 208.999 26.2559 208.159 26.3979Z" fill="white"/>
<path d="M248.425 17.9095C247.8 17.6093 246.86 17.0716 246.399 16.8202C244.399 15.7241 243.61 15.0073 243.554 13.9854C243.461 12.2097 244.967 11.2927 246.272 11.4207C249.393 11.3649 249.812 14.863 250.132 14.863C250.609 14.863 250.483 14.4045 250.483 13.3734C250.483 13.1058 250.515 11.8071 250.323 11.5022C249.94 10.9296 247.731 10.5944 247.19 10.5944C247.055 10.5944 246.542 10.5782 246.454 10.5759C246.303 10.5712 246.107 10.5944 246.107 10.5944C243.881 10.5573 241.804 11.9653 241.869 14.9444C241.93 17.6558 245.121 19.2035 246.843 20.2368C248.116 20.9608 249.614 21.6519 249.595 23.3905C249.573 25.3758 248.034 26.6907 246.382 26.5813C242.507 26.5162 243.037 21.6543 242.34 21.6543C241.861 21.6543 241.96 22.8762 241.957 23.5255C241.953 25.0638 241.89 26.3277 242.074 26.5534C242.132 26.6233 242.321 26.5883 242.694 26.5883C243.458 26.5883 244.392 27.4332 246.622 27.4332C249.119 27.4704 251.36 25.157 251.36 22.2919C251.36 20.5301 250.845 19.4083 248.425 17.9095Z" fill="white"/>
<path d="M24.6354 20.9926V21.0332C24.6313 21.3431 24.6275 21.5618 24.6275 21.5657V21.5819L24.6266 21.5982C24.5823 22.5096 24.3111 23.2352 23.7697 23.8549C23.4131 24.2383 22.9155 24.6392 22.2219 25.0265C22.0311 25.1312 21.8253 25.2359 21.6028 25.343C21.4349 25.4216 21.2575 25.4993 21.0703 25.5757L21.0695 25.5762C20.9223 25.6367 20.4494 25.847 20.2911 25.9058L12.8695 28.7145L5.44797 25.9058C5.28969 25.847 4.81677 25.6367 4.66968 25.5762L4.66875 25.5757C4.48163 25.4993 4.30428 25.4216 4.13623 25.343C3.91375 25.2359 3.708 25.1312 3.51715 25.0265C2.82359 24.6392 2.32599 24.2383 1.96991 23.8549C1.42809 23.2352 1.15671 22.5096 1.1125 21.5982L1.11156 21.5819V21.5657C1.11156 21.5618 1.10784 21.3431 1.10365 21.0332V20.9926V1.40338C7.91175 2.81331 12.7685 2.76826 12.8686 2.7673V2.76683H12.8695H12.8705V2.7673C12.9706 2.76826 17.8273 2.81331 24.6354 1.40338V20.9926ZM12.8705 1.49144H12.8686C12.7587 1.49239 7.44672 1.54208 0 0V21.4265V21.4707C0.00465478 21.8096 0.00884406 22.0492 0.00884406 22.0529V22.0707L0.00977507 22.0883C0.0581848 23.0855 0.35516 23.8795 0.947252 24.5568C1.33732 24.9767 1.88146 25.4151 2.6402 25.8382C2.84873 25.9528 3.07402 26.0677 3.31699 26.1845C3.50086 26.2707 3.69496 26.3559 3.89932 26.4392L3.90071 26.4396C4.06129 26.5058 4.57891 26.7361 4.75207 26.7999L12.8695 29.8726L20.987 26.7999C21.1601 26.7361 21.6778 26.5058 21.8384 26.4396L21.8397 26.4392C22.0441 26.3559 22.2382 26.2707 22.4221 26.1845C22.6651 26.0677 22.8904 25.9528 23.0994 25.8382C23.8576 25.4151 24.4017 24.9767 24.7919 24.5568C25.384 23.8795 25.681 23.0855 25.7293 22.0883L25.7303 22.0707V22.0529C25.7307 22.0492 25.7344 21.8096 25.7391 21.4707V21.4265V0C18.2924 1.54208 12.9804 1.49239 12.8705 1.49144Z" fill="white"/>
<path d="M14.9639 5.97313L13.6889 6.91893L14.1652 8.43643L12.8692 7.51439L11.5748 8.43643L12.0509 6.91893L10.7746 5.97313L12.3638 5.9592L12.8692 4.45107L13.3762 5.9592L14.9639 5.97313ZM19.3264 5.37268L19.8319 3.86408L20.3388 5.37268L21.9265 5.38662L20.6516 6.33205L21.1278 7.84996L19.8319 6.92739L18.5373 7.84996L19.0136 6.33205L17.7372 5.38662L19.3264 5.37268ZM7.20206 7.84996L5.90617 6.92739L4.61167 7.84996L5.08785 6.33205L3.81198 5.38662L5.40066 5.37268L5.90617 3.86408L6.41307 5.37268L8.00082 5.38662L6.72588 6.33205L7.20206 7.84996ZM12.8702 3.93296H12.8683C12.7772 3.93391 8.33646 3.97526 2.11206 2.6864V7.70564C8.33646 8.99452 12.7772 8.95313 12.8683 8.95222H12.8692H12.8702C12.9613 8.95313 17.4016 8.99452 23.6264 7.70564V2.6864C17.4016 3.97526 12.9613 3.93391 12.8702 3.93296Z" fill="white"/>
<path d="M13.4265 22.5651L13.1401 23.3612V24.7093H12.5984V23.3612L12.312 22.5651V21.0551L12.8692 20.4981L13.4265 21.0551V22.5651ZM13.5442 25.116H14.5334V25.6248L13.9058 26.128L13.5442 25.737V25.116ZM13.5442 23.3621L14.2164 22.6225H15.7148V23.3356L15.2833 23.7703L14.6144 23.336L14.6139 23.3356L14.0851 23.9081V24.7093H13.5442V23.3621ZM17.8396 21.4424H18.8889L19.3594 21.9606V22.904H18.9805V22.3431L18.6105 21.9419L18.6101 21.9424L18.1417 22.2464L17.8396 21.9424V21.4424ZM19.6424 23.7545V23.189H20.0213V23.7545L20.222 24.1218L19.8319 24.6045L19.4418 24.1218L19.6424 23.7545ZM19.4418 21.4025V20.3453L19.8319 19.9553L20.222 20.3453V21.4025L20.0213 21.96V22.904H19.6424V21.96L19.4418 21.4025ZM20.3044 23.189H20.9969V23.5445L20.5576 23.8969L20.3044 23.6237V23.189ZM20.3044 21.9606L20.775 21.4424H21.824V21.9424L21.522 22.2464L21.0538 21.9424V21.9419L20.6832 22.3431V22.904H20.3044V21.9606ZM19.3594 23.6237L19.1062 23.8969L18.6667 23.5445V23.189H19.3594V23.6237ZM12.8692 27.138L12.312 26.4487L12.5984 25.9241V25.116H13.1401V25.9241L13.4265 26.4487L12.8692 27.138ZM12.1944 24.7093H11.6535V23.9081L11.1246 23.3356L11.1242 23.336L10.4553 23.7703L10.0243 23.3356V22.6225H11.5221L12.1944 23.3621V24.7093ZM12.1944 25.737L11.8326 26.128L11.2052 25.6248V25.116H12.1944V25.737ZM7.89842 21.9424L7.59632 22.2464L7.12805 21.9424V21.9419L6.75752 22.3431V22.904H6.37864V21.9606L6.84923 21.4424H7.89842V21.9424ZM7.07127 23.5445L6.63233 23.8969L6.37864 23.6237V23.189H7.07127V23.5445ZM6.29624 21.4025L6.09609 21.96V22.904H5.71673V21.96L5.51657 21.4025H5.5161V20.3453H5.51657L5.90617 19.9553L6.29624 20.3453V21.4025ZM5.90617 24.6045L5.5161 24.1218L5.71673 23.7545V23.189H6.09609V23.7545L6.29624 24.1218L5.90617 24.6045ZM5.43372 22.904H5.05481V22.3431L4.68476 21.9419L4.68429 21.9424L4.21602 22.2464L3.91439 21.9424V21.4424H4.96311L5.43372 21.9606V22.904ZM5.43372 23.6237L5.18049 23.8969L4.74109 23.5445V23.189H5.43372V23.6237ZM12.8702 20.0972H12.8683C12.7772 20.0981 8.33646 20.1396 2.11206 18.8506V20.6334C2.11624 20.9169 2.11951 21.1166 2.11951 21.1203V21.1352L2.12044 21.1501C2.16093 21.9834 2.40904 22.6471 2.90384 23.2131C3.22968 23.5636 3.68492 23.9304 4.31889 24.2842C4.49344 24.3802 4.6815 24.476 4.88491 24.5738C5.03853 24.6454 5.2005 24.7166 5.3718 24.7865L5.37226 24.7869C5.50678 24.8419 5.93923 25.035 6.08445 25.088L12.8692 27.6561L19.6541 25.088C19.7993 25.035 20.2317 24.8419 20.3663 24.7869L20.3672 24.7865C20.538 24.7166 20.7 24.6454 20.8536 24.5738C21.057 24.476 21.245 24.3802 21.4196 24.2842C22.0536 23.9304 22.5089 23.5636 22.8347 23.2131C23.3294 22.6471 23.5775 21.9834 23.6181 21.1501L23.6191 21.1352V21.1203C23.6191 21.1166 23.6223 20.9169 23.6264 20.6334V20.5962V18.8506C17.4016 20.1396 12.9613 20.0981 12.8702 20.0972Z" fill="white"/>
<path d="M13.3984 17.3747L12.8696 17.8328L12.3408 17.3747L12.041 17.1149H7.7428V10.7221L6.83374 11.3886V18.0198H11.8958L12.3408 18.4052L12.8696 18.8633L13.3984 18.4052L13.8434 18.0198H18.9054V11.3886L17.9963 10.7221V17.1149H13.6981L13.3984 17.3747Z" fill="white"/>
<path d="M12.3407 10.3266L12.1805 10.1879H8.65222V16.2108H12.1879L12.4343 16.4244L12.8694 16.801L13.3046 16.4244L13.5509 16.2108H17.0867V10.1879H13.5583L13.3983 10.3266L12.8694 10.7847L12.3407 10.3266Z" fill="white"/>
<path d="M19.8325 16.1404C20.9944 15.9719 22.2679 15.7541 23.6266 15.4725V13.8311V11.3922C22.2679 11.6737 20.9944 11.8916 19.8325 12.06V16.1404Z" fill="white"/>
<path d="M5.90617 12.06C4.74433 11.8916 3.47079 11.6737 2.11206 11.3922V13.8311V15.4725C3.47079 15.7541 4.74433 15.9719 5.90617 16.1404V12.06Z" fill="white"/>
<path d="M381.47 9.37008C381.875 9.37008 382.776 7.88979 382.776 7.44534C382.776 7.00075 381.875 5.48334 381.47 5.48334C381.096 5.48334 380.162 7.03805 380.162 7.44534C380.162 7.85267 381.096 9.37008 381.47 9.37008Z" fill="white"/>
<path d="M395 38.5884H35.4501V37.6863H395V38.5884Z" fill="white"/>
<path d="M273.454 27.3284L273.374 27.57L273.357 27.6217L273.454 27.3284Z" fill="white"/>
<path d="M48.3925 55.5327C48.0914 56.6699 47.5538 58.5006 47.1669 59.3403C46.5647 59.4893 44.7572 59.9841 43.2086 59.9841C37.8527 59.9841 35.5081 55.731 35.5081 51.7987C35.5081 46.5807 38.9932 43.1687 43.7899 43.1687C45.5318 43.1687 46.9943 43.7119 47.5967 43.8352C47.7688 45.2201 47.8982 46.2348 48.0267 47.5698L47.403 47.7429C46.8225 45.1223 45.5318 44.0586 43.2086 44.0586C39.6169 44.0586 37.702 47.545 37.702 51.3039C37.702 55.9288 40.068 59.0936 43.3376 59.0936C45.5318 59.0936 46.6931 57.7335 47.7688 55.2851L48.3925 55.5327Z" fill="white"/>
<path d="M54.1803 50.5617H54.1374L52.7177 54.8892H55.5786L54.1803 50.5617ZM55.6428 59.6129V58.9445L56.0515 58.8956C56.6967 58.7969 56.8261 58.5991 56.5245 57.7086L55.9226 55.8541H52.3947C52.2229 56.3485 52.0508 56.9173 51.8999 57.5852C51.6426 58.5748 51.8572 58.7727 52.4808 58.87L52.9976 58.9445V59.6129H49.1038V58.9445C50.0934 58.8211 50.5021 58.648 51.1473 56.8428L54.3097 47.9899L54.9549 47.7917L58.2886 57.2631C58.7834 58.6982 59.1707 58.87 60.1598 58.9445V59.6129H55.6428Z" fill="white"/>
<path d="M74.7222 48.8063C73.1303 48.9544 73.0232 49.0289 73.0441 50.7852L73.1735 56.9918C73.1949 58.6983 73.2811 58.7969 74.7655 58.9445V59.6129H69.9255V58.9445C71.3452 58.7969 71.4532 58.7225 71.4532 56.9667L71.4959 49.8444H71.4312L67.6236 59.4146H67.1722L63.8812 50.018H63.817L63.6014 54.5928C63.494 56.3239 63.494 57.2143 63.5367 57.832C63.5586 58.6238 63.8812 58.8211 65.0211 58.9445V59.6129H60.9989V58.9445C61.9671 58.8458 62.3326 58.5991 62.4401 57.8566C62.5477 57.09 62.677 56.1265 62.7841 54.5183L63.0425 51.0313C63.1713 49.0289 63.0425 48.9544 61.5152 48.8063V48.1389H64.849L67.9681 56.1749L71.367 48.1389H74.7222V48.8063Z" fill="white"/>
<path d="M79.2194 54.098C79.4994 54.2222 79.9292 54.3456 80.4671 54.3456C81.2202 54.3456 82.6398 53.9746 82.6398 51.5504C82.6398 49.6471 81.5428 48.8808 80.2731 48.8808C79.2407 48.8808 79.2194 49.0787 79.2194 49.9189V54.098ZM80.747 48.1389C83.0696 48.1389 84.5752 49.1275 84.5752 51.5261C84.5752 53.7768 83.0909 54.9391 81.2628 55.2113C80.9829 55.2602 80.7257 55.2602 80.4884 55.2602L79.2194 54.8892V57.0412C79.2194 58.6722 79.3488 58.7969 80.919 58.9445V59.6129H75.993V58.9445C77.37 58.7969 77.4986 58.6983 77.4986 57.0654V50.834C77.4986 49.0289 77.37 48.9297 76.079 48.8063V48.1389H80.747Z" fill="white"/>
<path d="M97.1162 48.8068C96.0831 48.9059 95.6966 49.1038 95.632 49.9681C95.5681 50.5374 95.5247 51.353 95.5247 53.01V54.3707C95.5247 56.0277 95.2234 57.6104 94.3417 58.6241C93.6319 59.4643 92.5562 59.934 91.4158 59.934C90.4048 59.934 89.4584 59.712 88.706 59.044C87.8243 58.2527 87.329 56.9671 87.329 54.8897V50.8097C87.329 49.079 87.2005 48.9548 85.8235 48.8068V48.1393H90.5341V48.8068C89.1792 48.9548 89.0712 49.079 89.0712 50.8097V54.3459C89.0712 57.2147 90.0396 58.7229 91.8677 58.7229C93.8038 58.7229 94.7069 57.0415 94.7069 54.1481V53.01C94.7069 51.304 94.6635 50.5621 94.5996 49.9681C94.5136 49.1038 94.1477 48.8812 92.9221 48.8068V48.1393H97.1162V48.8068Z" fill="white"/>
<path d="M103.978 51.2799C103.548 49.7704 102.925 48.609 101.656 48.609C100.623 48.609 100.043 49.4752 100.043 50.4383C100.043 51.7244 100.881 52.1945 101.935 52.7135L102.323 52.8867C103.763 53.5551 105.076 54.3953 105.076 56.3987C105.076 58.4505 103.484 59.934 101.354 59.934C99.9783 59.934 98.9451 59.3406 98.5579 59.0682C98.4286 58.6726 98.214 57.2147 98.0421 55.9779L98.6659 55.8546C99.0524 57.2393 99.9995 59.1427 101.634 59.1427C102.688 59.1427 103.398 58.303 103.398 57.1649C103.398 55.8057 102.515 55.2606 101.656 54.8407L101.182 54.5931C99.9995 53.9992 98.4719 53.1338 98.4719 51.2552C98.4719 49.2518 99.8056 47.8176 102.043 47.8176C103.011 47.8176 103.806 48.1393 104.194 48.2882C104.344 49.0293 104.43 49.944 104.581 51.1807L103.978 51.2799Z" fill="white"/>
<path d="M123.791 55.5327C123.489 56.6699 122.952 58.5006 122.564 59.3403C121.961 59.4893 120.155 59.9841 118.605 59.9841C113.25 59.9841 110.906 55.731 110.906 51.7987C110.906 46.5807 114.39 43.1687 119.187 43.1687C120.93 43.1687 122.392 43.7119 122.994 43.8352C123.166 45.2201 123.296 46.2348 123.423 47.5698L122.8 47.7429C122.22 45.1223 120.93 44.0586 118.605 44.0586C115.014 44.0586 113.099 47.545 113.099 51.3039C113.099 55.9288 115.466 59.0936 118.735 59.0936C120.93 59.0936 122.09 57.7335 123.166 55.2851L123.791 55.5327Z" fill="white"/>
<path d="M129.577 50.5617H129.535L128.116 54.8892H130.975L129.577 50.5617ZM131.041 59.6129V58.9445L131.449 58.8956C132.094 58.7969 132.223 58.5991 131.921 57.7086L131.319 55.8541H127.792C127.62 56.3485 127.448 56.9173 127.296 57.5852C127.039 58.5748 127.254 58.7727 127.878 58.87L128.394 58.9445V59.6129H124.501V58.9445C125.49 58.8211 125.899 58.648 126.545 56.8428L129.706 47.9899L130.352 47.7917L133.686 57.2631C134.18 58.6982 134.568 58.87 135.557 58.9445V59.6129H131.041Z" fill="white"/>
<path d="M140.677 53.8998C141.279 53.8998 141.795 53.8007 142.247 53.5042C142.807 53.1086 143.086 52.3172 143.086 51.4267C143.086 49.6221 142.032 48.9053 140.785 48.9053C139.882 48.9053 139.794 49.1273 139.794 49.8702V53.8998H140.677ZM146.657 59.7616H146.162C144.441 59.7616 143.753 59.2165 143.107 58.1534C142.634 57.3616 142.032 56.2007 141.731 55.5816C141.344 54.8401 141.106 54.667 140.267 54.667H139.794V56.9664C139.794 58.6719 139.924 58.8209 141.322 58.9443V59.6127H136.547V58.9443C137.967 58.8209 138.095 58.6719 138.095 56.9664V50.8091C138.095 49.004 137.967 48.9295 136.612 48.8062V48.1387H141.344C142.441 48.1387 143.236 48.2876 143.882 48.7317C144.505 49.1767 144.978 49.9675 144.978 51.1056C144.978 52.7129 143.968 53.6289 142.935 54.0731C143.193 54.5678 143.86 55.8539 144.355 56.6448C144.894 57.5353 145.172 57.9309 145.538 58.3768C145.904 58.8209 146.334 59.0434 146.722 59.1924L146.657 59.7616Z" fill="white"/>
<path d="M150.508 56.8429C150.508 58.4259 150.853 58.7969 152.079 58.7969C154.638 58.7969 155.972 56.8429 155.972 53.8266C155.972 50.2159 154.251 48.9297 151.885 48.9297C151.261 48.9297 150.831 49.0531 150.703 49.2514C150.573 49.4003 150.508 49.7215 150.508 50.4137V56.8429ZM152.144 48.1389C153.993 48.1389 155.584 48.5587 156.661 49.6968C157.435 50.5123 157.994 51.8483 157.994 53.4802C157.994 57.7087 155.026 59.6129 151.498 59.6129H147.196V58.9445C148.637 58.8211 148.766 58.6722 148.766 56.942V50.8596C148.766 49.0289 148.637 48.9297 147.326 48.8063V48.1389H152.144Z" fill="white"/>
<path d="M171.115 47.2728C170.75 45.7163 170.168 44.0088 168.298 44.0088C166.641 44.0088 165.91 45.369 165.91 46.7049C165.91 48.5101 166.943 49.3749 168.642 50.3636C170.342 51.3784 172.362 52.5155 172.362 55.3093C172.362 57.9067 170.448 59.9841 167.588 59.9841C166.706 59.9841 165.997 59.7863 165.48 59.6131C164.942 59.3906 164.619 59.217 164.405 59.0936C164.253 58.5751 163.974 56.4474 163.823 55.2604L164.469 55.0873C164.79 56.5963 165.76 59.0936 167.996 59.0936C169.631 59.0936 170.578 57.9313 170.578 56.1266C170.578 54.296 169.395 53.4316 167.782 52.4424C166.404 51.5762 164.232 50.3636 164.232 47.5698C164.232 45.1958 165.888 43.1687 168.663 43.1687C169.652 43.1687 170.555 43.4396 171.373 43.7375C171.46 44.6265 171.566 45.5916 171.739 47.1499L171.115 47.2728Z" fill="white"/>
<path d="M182.215 56.5706C182.108 57.3135 181.784 59.0935 181.656 59.6129H173.353V58.9445C174.88 58.7969 174.988 58.648 174.988 56.8922V50.8596C174.988 49.0531 174.88 48.9297 173.503 48.8311V48.1389H181.246C181.267 48.6332 181.333 49.8444 181.418 50.983L180.838 51.0313C180.644 50.2656 180.473 49.8444 180.257 49.5479C179.977 49.1275 179.634 48.9544 178.472 48.9544H177.332C176.772 48.9544 176.73 48.9786 176.73 49.6471V53.2079H178.3C179.591 53.2079 179.698 53.0599 179.891 51.8483H180.494V55.5819H179.891C179.698 54.3204 179.591 54.1477 178.3 54.1477H176.73V56.9918C176.73 57.9311 176.837 58.3771 177.096 58.5749C177.353 58.7728 177.869 58.8211 178.752 58.8211C179.848 58.8211 180.408 58.6722 180.795 58.2035C181.052 57.8566 181.333 57.3377 181.613 56.4472L182.215 56.5706Z" fill="white"/>
<path d="M187.507 53.8998C188.11 53.8998 188.627 53.8007 189.078 53.5042C189.637 53.1086 189.917 52.3172 189.917 51.4267C189.917 49.6221 188.863 48.9053 187.615 48.9053C186.711 48.9053 186.626 49.1273 186.626 49.8702V53.8998H187.507ZM193.488 59.7616H192.993C191.272 59.7616 190.582 59.2165 189.938 58.1534C189.465 57.3616 188.863 56.2007 188.562 55.5816C188.175 54.8401 187.939 54.667 187.098 54.667H186.626V56.9664C186.626 58.6719 186.754 58.8209 188.153 58.9443V59.6127H183.378V58.9443C184.798 58.8209 184.926 58.6719 184.926 56.9664V50.8091C184.926 49.004 184.798 48.9295 183.443 48.8062V48.1387H188.175C189.272 48.1387 190.068 48.2876 190.713 48.7317C191.336 49.1767 191.81 49.9675 191.81 51.1056C191.81 52.7129 190.798 53.6289 189.767 54.0731C190.025 54.5678 190.691 55.8539 191.186 56.6448C191.723 57.5353 192.004 57.9309 192.369 58.3768C192.735 58.8209 193.165 59.0434 193.552 59.1924L193.488 59.7616Z" fill="white"/>
<path d="M204.157 48.8068C202.975 49.0047 202.76 49.2025 202.093 50.7856C201.469 52.2449 200.07 56.1754 198.802 59.8597H198.135C197.016 56.6455 195.533 52.54 194.758 50.3895C194.285 49.0792 193.962 48.9549 192.994 48.8068V48.1393H197.555V48.8068L196.951 48.9302C196.371 49.0535 196.286 49.2272 196.543 49.9938C196.909 51.1063 198.049 54.2962 199.017 57.0659C199.812 54.9139 200.974 51.4275 201.361 50.1172C201.599 49.2272 201.512 49.0535 200.738 48.8813L200.265 48.8068V48.1393H204.157V48.8068Z" fill="white"/>
<path d="M205.127 59.6129V58.9445C206.504 58.7969 206.633 58.6983 206.633 56.9173V50.834C206.633 49.0289 206.504 48.9297 205.127 48.8063V48.1389H209.903V48.8063C208.504 48.9544 208.375 49.0289 208.375 50.834V56.9173C208.375 58.6983 208.504 58.7969 209.903 58.9445V59.6129H205.127Z" fill="white"/>
<path d="M221.024 56.2987C220.852 57.1649 220.444 58.7731 220.142 59.415C219.713 59.564 218.098 59.934 217.045 59.934C213.129 59.934 211.281 57.0657 211.281 53.9992C211.281 50.2907 213.948 47.8176 217.389 47.8176C218.744 47.8176 219.863 48.1635 220.422 48.3613C220.552 49.3262 220.595 50.2661 220.722 51.3785L220.099 51.5019C219.67 49.3504 218.594 48.609 217.023 48.609C214.851 48.609 213.302 50.7352 213.302 53.7026C213.302 56.9178 215.023 59.1185 217.109 59.1185C218.658 59.1185 219.626 58.1294 220.422 56.1511L221.024 56.2987Z" fill="white"/>
<path d="M230.984 56.5706C230.877 57.3135 230.553 59.0935 230.424 59.6129H222.121V58.9445C223.649 58.7969 223.756 58.648 223.756 56.8922V50.8596C223.756 49.0531 223.649 48.9297 222.273 48.8311V48.1389H230.016C230.038 48.6332 230.102 49.8444 230.188 50.983L229.607 51.0313C229.414 50.2656 229.242 49.8444 229.027 49.5479C228.747 49.1275 228.404 48.9544 227.241 48.9544H226.101C225.541 48.9544 225.498 48.9786 225.498 49.6471V53.2079H227.07C228.36 53.2079 228.467 53.0599 228.661 51.8483H229.262V55.5819H228.661C228.467 54.3204 228.36 54.1477 227.07 54.1477H225.498V56.9918C225.498 57.9311 225.606 58.3771 225.865 58.5749C226.124 58.7728 226.639 58.8211 227.52 58.8211C228.618 58.8211 229.177 58.6722 229.564 58.2035C229.822 57.8566 230.102 57.3377 230.382 56.4472L230.984 56.5706Z" fill="white"/>
<path d="M238.104 51.2799C237.674 49.7704 237.05 48.609 235.781 48.609C234.748 48.609 234.169 49.4752 234.169 50.4383C234.169 51.7244 235.007 52.1945 236.061 52.7135L236.448 52.8867C237.89 53.5551 239.2 54.3953 239.2 56.3987C239.2 58.4505 237.609 59.934 235.479 59.934C234.102 59.934 233.071 59.3406 232.682 59.0682C232.555 58.6726 232.339 57.2147 232.168 55.9779L232.791 55.8546C233.178 57.2393 234.125 59.1427 235.759 59.1427C236.812 59.1427 237.523 58.303 237.523 57.1649C237.523 55.8057 236.642 55.2606 235.781 54.8407L235.309 54.5931C234.125 53.9992 232.598 53.1338 232.598 51.2552C232.598 49.2518 233.931 47.8176 236.168 47.8176C237.136 47.8176 237.933 48.1393 238.319 48.2882C238.47 49.0293 238.556 49.944 238.706 51.1807L238.104 51.2799Z" fill="white"/>
</svg>
